<svg width="86" height="53" viewBox="0 0 86 53" fill="none" xmlns="http://www.w3.org/2000/svg">
<path d="M10.9238 19.6377L16.3027 0.828125H22.3291L14.0449 25H10.1104L10.9238 19.6377ZM6.02637 0.828125L11.3887 19.6377L12.2354 25H8.25098L0.0166016 0.828125H6.02637ZM30.0986 0.828125V25H24.7031V0.828125H30.0986ZM45.2227 0.828125V25H39.8271V0.828125H45.2227ZM52.5771 0.828125V5.02832H32.6221V0.828125H52.5771ZM63.4014 5.42676L57.1592 25H51.3818L60.3301 0.828125H63.9824L63.4014 5.42676ZM68.5811 25L62.3223 5.42676L61.6748 0.828125H65.377L74.3584 25H68.5811ZM68.3154 16.002V20.1855H55.7148V16.002H68.3154Z" fill="#2A5573"/>
<path d="M7.66992 27.8281V52H1.84277V27.8281H7.66992ZM17.0664 37.8887V42.3711H6.00977V37.8887H17.0664ZM18.0127 27.8281V32.3271H6.00977V27.8281H18.0127ZM33.5518 27.8281H39.3789V43.6162C39.3789 45.4977 38.986 47.0915 38.2002 48.3975C37.4144 49.6924 36.3132 50.6719 34.8965 51.3359C33.4798 52 31.8141 52.332 29.8994 52.332C28.0068 52.332 26.3411 52 24.9023 51.3359C23.4746 50.6719 22.3568 49.6924 21.5488 48.3975C20.752 47.0915 20.3535 45.4977 20.3535 43.6162V27.8281H26.1973V43.6162C26.1973 44.6123 26.3411 45.4258 26.6289 46.0566C26.9167 46.6764 27.3372 47.1302 27.8906 47.418C28.444 47.7057 29.1136 47.8496 29.8994 47.8496C30.6963 47.8496 31.3659 47.7057 31.9082 47.418C32.4505 47.1302 32.86 46.6764 33.1367 46.0566C33.4134 45.4258 33.5518 44.6123 33.5518 43.6162V27.8281ZM63.2354 27.8281V52H57.4248L48.875 36.959V52H43.0479V27.8281H48.875L57.4248 42.8691V27.8281H63.2354ZM74.7734 52H69.4111L69.4443 47.5176H74.7734C75.8802 47.5176 76.8154 47.252 77.5791 46.7207C78.3538 46.1895 78.9404 45.3981 79.3389 44.3467C79.7484 43.2842 79.9531 41.9782 79.9531 40.4287V39.3828C79.9531 38.2207 79.8369 37.2025 79.6045 36.3281C79.3831 35.4427 79.0511 34.7067 78.6084 34.1201C78.1657 33.5225 77.6123 33.0742 76.9482 32.7754C76.2952 32.4766 75.5426 32.3271 74.6904 32.3271H69.3115V27.8281H74.6904C76.3285 27.8281 77.8281 28.1104 79.1895 28.6748C80.5618 29.2282 81.7461 30.0251 82.7422 31.0654C83.7493 32.0947 84.5241 33.3177 85.0664 34.7344C85.6198 36.14 85.8965 37.7005 85.8965 39.416V40.4287C85.8965 42.1331 85.6198 43.6937 85.0664 45.1104C84.5241 46.527 83.7549 47.75 82.7588 48.7793C81.7627 49.8086 80.584 50.6055 79.2227 51.1699C77.8724 51.7233 76.3893 52 74.7734 52ZM72.748 27.8281V52H66.9209V27.8281H72.748Z" fill="#C53A3F"/>
</svg>
