<svg width="162" height="27" viewBox="0 0 162 27" fill="none" xmlns="http://www.w3.org/2000/svg">
<path d="M10.9238 19.6377L16.3027 0.828125H22.3291L14.0449 25H10.1104L10.9238 19.6377ZM6.02637 0.828125L11.3887 19.6377L12.2354 25H8.25098L0.0166016 0.828125H6.02637ZM30.0986 0.828125V25H24.7031V0.828125H30.0986ZM45.2227 0.828125V25H39.8271V0.828125H45.2227ZM52.5771 0.828125V5.02832H32.6221V0.828125H52.5771ZM63.4014 5.42676L57.1592 25H51.3818L60.3301 0.828125H63.9824L63.4014 5.42676ZM68.5811 25L62.3223 5.42676L61.6748 0.828125H65.377L74.3584 25H68.5811ZM68.3154 16.002V20.1855H55.7148V16.002H68.3154Z" fill="#2A5573"/>
<path d="M81.7793 0.828125V25H76.3672V0.828125H81.7793ZM91.292 11.0215V15.2051H80.2686V11.0215H91.292ZM92.3545 0.828125V5.02832H80.2686V0.828125H92.3545ZM108.226 0.828125H113.638V16.6992C113.638 18.5807 113.239 20.1634 112.442 21.4473C111.657 22.7311 110.561 23.6995 109.155 24.3525C107.75 25.0055 106.123 25.332 104.274 25.332C102.415 25.332 100.777 25.0055 99.3604 24.3525C97.9548 23.6995 96.848 22.7311 96.04 21.4473C95.2432 20.1634 94.8447 18.5807 94.8447 16.6992V0.828125H100.273V16.6992C100.273 17.7396 100.428 18.5918 100.738 19.2559C101.059 19.9089 101.519 20.3903 102.116 20.7002C102.714 20.999 103.433 21.1484 104.274 21.1484C105.116 21.1484 105.829 20.999 106.416 20.7002C107.014 20.3903 107.462 19.9089 107.761 19.2559C108.071 18.5918 108.226 17.7396 108.226 16.6992V0.828125ZM137.444 0.828125V25H132.049L122.918 9.37793V25H117.506V0.828125H122.918L132.065 16.4502V0.828125H137.444ZM149.099 25H143.786L143.819 20.8164H149.099C150.305 20.8164 151.323 20.5397 152.153 19.9863C152.983 19.4219 153.614 18.5918 154.046 17.4961C154.478 16.3893 154.693 15.0446 154.693 13.4619V12.3496C154.693 11.1543 154.572 10.1029 154.328 9.19531C154.085 8.27669 153.725 7.50749 153.249 6.8877C152.773 6.2679 152.181 5.80306 151.473 5.49316C150.775 5.18327 149.973 5.02832 149.065 5.02832H143.687V0.828125H149.065C150.703 0.828125 152.198 1.10482 153.548 1.6582C154.909 2.21159 156.082 3.00293 157.067 4.03223C158.063 5.06152 158.833 6.27897 159.375 7.68457C159.917 9.09017 160.188 10.6562 160.188 12.3828V13.4619C160.188 15.1774 159.917 16.7435 159.375 18.1602C158.833 19.5658 158.063 20.7832 157.067 21.8125C156.082 22.8307 154.915 23.6165 153.564 24.1699C152.214 24.7233 150.726 25 149.099 25ZM146.857 0.828125V25H141.445V0.828125H146.857Z" fill="#C53A3F"/>
</svg>
